<mxfile host="app.diagrams.net" modified="2024-05-19T14:47:53.501Z" agent="Mozilla/5.0 (Macintosh; Intel Mac OS X 10_15_7) AppleWebKit/537.36 (KHTML, like Gecko) Chrome/124.0.0.0 Safari/537.36" etag="ssAOgUF0bCUL1jqZIRoq" version="24.4.4" type="device">
  <diagram id="C5RBs43oDa-KdzZeNtuy" name="Page-1">
    <mxGraphModel dx="2562" dy="1164" grid="1" gridSize="10" guides="1" tooltips="1" connect="1" arrows="1" fold="1" page="1" pageScale="1" pageWidth="827" pageHeight="1169" math="0" shadow="0">
      <root>
        <mxCell id="WIyWlLk6GJQsqaUBKTNV-0" />
        <mxCell id="WIyWlLk6GJQsqaUBKTNV-1" parent="WIyWlLk6GJQsqaUBKTNV-0" />
        <mxCell id="zkfFHV4jXpPFQw0GAbJ--6" value="Library" style="swimlane;fontStyle=0;align=center;verticalAlign=top;childLayout=stackLayout;horizontal=1;startSize=26;horizontalStack=0;resizeParent=1;resizeLast=0;collapsible=1;marginBottom=0;rounded=0;shadow=0;strokeWidth=1;" parent="WIyWlLk6GJQsqaUBKTNV-1" vertex="1">
          <mxGeometry x="530" y="1538" width="330" height="240" as="geometry">
            <mxRectangle x="130" y="380" width="160" height="26" as="alternateBounds" />
          </mxGeometry>
        </mxCell>
        <mxCell id="zkfFHV4jXpPFQw0GAbJ--8" value="-rentedBooks: HashMap&lt;Person, List&lt;Book&gt;&gt;&#xa;&#xa;" style="text;align=left;verticalAlign=top;spacingLeft=4;spacingRight=4;overflow=hidden;rotatable=0;points=[[0,0.5],[1,0.5]];portConstraint=eastwest;rounded=0;shadow=0;html=0;" parent="zkfFHV4jXpPFQw0GAbJ--6" vertex="1">
          <mxGeometry y="26" width="330" height="84" as="geometry" />
        </mxCell>
        <mxCell id="zkfFHV4jXpPFQw0GAbJ--7" value="-books: List&lt;String&gt;;" style="text;align=left;verticalAlign=top;spacingLeft=4;spacingRight=4;overflow=hidden;rotatable=0;points=[[0,0.5],[1,0.5]];portConstraint=eastwest;" parent="zkfFHV4jXpPFQw0GAbJ--6" vertex="1">
          <mxGeometry y="110" width="330" height="26" as="geometry" />
        </mxCell>
        <mxCell id="zkfFHV4jXpPFQw0GAbJ--9" value="" style="line;html=1;strokeWidth=1;align=left;verticalAlign=middle;spacingTop=-1;spacingLeft=3;spacingRight=3;rotatable=0;labelPosition=right;points=[];portConstraint=eastwest;" parent="zkfFHV4jXpPFQw0GAbJ--6" vertex="1">
          <mxGeometry y="136" width="330" height="8" as="geometry" />
        </mxCell>
        <mxCell id="zkfFHV4jXpPFQw0GAbJ--10" value="+ addBooks(): void;" style="text;align=left;verticalAlign=top;spacingLeft=4;spacingRight=4;overflow=hidden;rotatable=0;points=[[0,0.5],[1,0.5]];portConstraint=eastwest;fontStyle=4" parent="zkfFHV4jXpPFQw0GAbJ--6" vertex="1">
          <mxGeometry y="144" width="330" height="26" as="geometry" />
        </mxCell>
        <mxCell id="zkfFHV4jXpPFQw0GAbJ--11" value="+getRandomBook(): Book&#xa;+ TakeRandomBook(): List&lt;Person&gt;" style="text;align=left;verticalAlign=top;spacingLeft=4;spacingRight=4;overflow=hidden;rotatable=0;points=[[0,0.5],[1,0.5]];portConstraint=eastwest;" parent="zkfFHV4jXpPFQw0GAbJ--6" vertex="1">
          <mxGeometry y="170" width="330" height="18" as="geometry" />
        </mxCell>
        <mxCell id="zkfFHV4jXpPFQw0GAbJ--13" value="Main" style="swimlane;fontStyle=0;align=center;verticalAlign=top;childLayout=stackLayout;horizontal=1;startSize=26;horizontalStack=0;resizeParent=1;resizeLast=0;collapsible=1;marginBottom=0;rounded=0;shadow=0;strokeWidth=1;" parent="WIyWlLk6GJQsqaUBKTNV-1" vertex="1">
          <mxGeometry x="245" y="610" width="240" height="154" as="geometry">
            <mxRectangle x="340" y="380" width="170" height="26" as="alternateBounds" />
          </mxGeometry>
        </mxCell>
        <mxCell id="zkfFHV4jXpPFQw0GAbJ--15" value="" style="line;html=1;strokeWidth=1;align=left;verticalAlign=middle;spacingTop=-1;spacingLeft=3;spacingRight=3;rotatable=0;labelPosition=right;points=[];portConstraint=eastwest;" parent="zkfFHV4jXpPFQw0GAbJ--13" vertex="1">
          <mxGeometry y="26" width="240" height="8" as="geometry" />
        </mxCell>
        <mxCell id="AIYnKmkxbOMHXQF6a2W1-7" value="+GeneratePersonList(): List&amp;lt;Person&amp;gt;;" style="text;html=1;align=center;verticalAlign=middle;resizable=0;points=[];autosize=1;strokeColor=none;fillColor=none;" parent="zkfFHV4jXpPFQw0GAbJ--13" vertex="1">
          <mxGeometry y="34" width="240" height="30" as="geometry" />
        </mxCell>
        <mxCell id="zIFDxgf4mwAwPiX-p0y9-1" value="+printPersonList(): void;" style="text;html=1;align=center;verticalAlign=middle;resizable=0;points=[];autosize=1;strokeColor=none;fillColor=none;" parent="zkfFHV4jXpPFQw0GAbJ--13" vertex="1">
          <mxGeometry y="64" width="240" height="30" as="geometry" />
        </mxCell>
        <mxCell id="zIFDxgf4mwAwPiX-p0y9-2" value="+main(): void;" style="text;html=1;align=center;verticalAlign=middle;resizable=0;points=[];autosize=1;strokeColor=none;fillColor=none;" parent="zkfFHV4jXpPFQw0GAbJ--13" vertex="1">
          <mxGeometry y="94" width="240" height="30" as="geometry" />
        </mxCell>
        <mxCell id="zIFDxgf4mwAwPiX-p0y9-3" value="+isLeaf(): boolean" style="text;html=1;align=center;verticalAlign=middle;resizable=0;points=[];autosize=1;strokeColor=none;fillColor=none;" parent="zkfFHV4jXpPFQw0GAbJ--13" vertex="1">
          <mxGeometry y="124" width="240" height="30" as="geometry" />
        </mxCell>
        <mxCell id="AIYnKmkxbOMHXQF6a2W1-6" value="" style="endArrow=none;html=1;rounded=0;exitX=0.013;exitY=-0.076;exitDx=0;exitDy=0;exitPerimeter=0;" parent="zkfFHV4jXpPFQw0GAbJ--13" edge="1" source="zIFDxgf4mwAwPiX-p0y9-1">
          <mxGeometry width="50" height="50" relative="1" as="geometry">
            <mxPoint x="245" y="-370" as="sourcePoint" />
            <mxPoint x="245" y="62" as="targetPoint" />
          </mxGeometry>
        </mxCell>
        <mxCell id="zkfFHV4jXpPFQw0GAbJ--17" value="ExcelReader" style="swimlane;fontStyle=0;align=center;verticalAlign=top;childLayout=stackLayout;horizontal=1;startSize=26;horizontalStack=0;resizeParent=1;resizeLast=0;collapsible=1;marginBottom=0;rounded=0;shadow=0;strokeWidth=1;" parent="WIyWlLk6GJQsqaUBKTNV-1" vertex="1">
          <mxGeometry x="960" y="840" width="160" height="70" as="geometry">
            <mxRectangle x="550" y="140" width="160" height="26" as="alternateBounds" />
          </mxGeometry>
        </mxCell>
        <mxCell id="zkfFHV4jXpPFQw0GAbJ--23" value="" style="line;html=1;strokeWidth=1;align=left;verticalAlign=middle;spacingTop=-1;spacingLeft=3;spacingRight=3;rotatable=0;labelPosition=right;points=[];portConstraint=eastwest;" parent="zkfFHV4jXpPFQw0GAbJ--17" vertex="1">
          <mxGeometry y="26" width="160" height="8" as="geometry" />
        </mxCell>
        <mxCell id="zkfFHV4jXpPFQw0GAbJ--24" value="+ReadExcel(): List&lt;String&gt;;" style="text;align=left;verticalAlign=top;spacingLeft=4;spacingRight=4;overflow=hidden;rotatable=0;points=[[0,0.5],[1,0.5]];portConstraint=eastwest;" parent="zkfFHV4jXpPFQw0GAbJ--17" vertex="1">
          <mxGeometry y="34" width="160" height="26" as="geometry" />
        </mxCell>
        <mxCell id="zIFDxgf4mwAwPiX-p0y9-4" value="ParserBook" style="swimlane;whiteSpace=wrap;html=1;" parent="WIyWlLk6GJQsqaUBKTNV-1" vertex="1">
          <mxGeometry x="520" y="810" width="290" height="200" as="geometry" />
        </mxCell>
        <mxCell id="zIFDxgf4mwAwPiX-p0y9-6" value="+ParseNameBook(): List&amp;lt;String&amp;gt;;" style="text;html=1;align=center;verticalAlign=middle;resizable=0;points=[];autosize=1;strokeColor=none;fillColor=none;" parent="zIFDxgf4mwAwPiX-p0y9-4" vertex="1">
          <mxGeometry x="10" y="48" width="200" height="30" as="geometry" />
        </mxCell>
        <mxCell id="zIFDxgf4mwAwPiX-p0y9-7" value="+ParseEnglishBook(): List&amp;lt;String&amp;gt;;" style="text;html=1;align=center;verticalAlign=middle;resizable=0;points=[];autosize=1;strokeColor=none;fillColor=none;" parent="zIFDxgf4mwAwPiX-p0y9-4" vertex="1">
          <mxGeometry x="5" y="74" width="210" height="30" as="geometry" />
        </mxCell>
        <mxCell id="zIFDxgf4mwAwPiX-p0y9-8" value="+main(): void;" style="text;html=1;align=center;verticalAlign=middle;resizable=0;points=[];autosize=1;strokeColor=none;fillColor=none;" parent="zIFDxgf4mwAwPiX-p0y9-4" vertex="1">
          <mxGeometry x="30" y="98" width="100" height="30" as="geometry" />
        </mxCell>
        <mxCell id="zIFDxgf4mwAwPiX-p0y9-5" value="" style="endArrow=none;html=1;rounded=0;" parent="zIFDxgf4mwAwPiX-p0y9-4" edge="1">
          <mxGeometry width="50" height="50" relative="1" as="geometry">
            <mxPoint y="98" as="sourcePoint" />
            <mxPoint x="290" y="98" as="targetPoint" />
          </mxGeometry>
        </mxCell>
        <mxCell id="8o9iVSN4vGIKwp-Hl5bf-0" value="ParserFIO" style="swimlane;whiteSpace=wrap;html=1;" vertex="1" parent="WIyWlLk6GJQsqaUBKTNV-1">
          <mxGeometry x="125" y="940" width="300" height="200" as="geometry" />
        </mxCell>
        <mxCell id="8o9iVSN4vGIKwp-Hl5bf-4" value="+getTeacherNames(): List&amp;lt;String&amp;gt;;" style="text;html=1;align=center;verticalAlign=middle;resizable=0;points=[];autosize=1;strokeColor=none;fillColor=none;" vertex="1" parent="8o9iVSN4vGIKwp-Hl5bf-0">
          <mxGeometry x="20" y="58" width="210" height="30" as="geometry" />
        </mxCell>
        <mxCell id="8o9iVSN4vGIKwp-Hl5bf-5" value="+getTeacherSurnames(): List&amp;lt;String&amp;gt;;" style="text;html=1;align=center;verticalAlign=middle;resizable=0;points=[];autosize=1;strokeColor=none;fillColor=none;" vertex="1" parent="8o9iVSN4vGIKwp-Hl5bf-0">
          <mxGeometry x="20" y="78" width="230" height="30" as="geometry" />
        </mxCell>
        <mxCell id="8o9iVSN4vGIKwp-Hl5bf-6" value="+getTeacherPatronymics(): List&amp;lt;String&amp;gt;;" style="text;html=1;align=center;verticalAlign=middle;resizable=0;points=[];autosize=1;strokeColor=none;fillColor=none;" vertex="1" parent="8o9iVSN4vGIKwp-Hl5bf-0">
          <mxGeometry x="20" y="108" width="240" height="30" as="geometry" />
        </mxCell>
        <mxCell id="8o9iVSN4vGIKwp-Hl5bf-7" value="+ParseTeacherData(): void;" style="text;html=1;align=center;verticalAlign=middle;resizable=0;points=[];autosize=1;strokeColor=none;fillColor=none;" vertex="1" parent="8o9iVSN4vGIKwp-Hl5bf-0">
          <mxGeometry x="20" y="128" width="170" height="30" as="geometry" />
        </mxCell>
        <mxCell id="8o9iVSN4vGIKwp-Hl5bf-8" value="+main(): void;" style="text;html=1;align=center;verticalAlign=middle;resizable=0;points=[];autosize=1;strokeColor=none;fillColor=none;" vertex="1" parent="8o9iVSN4vGIKwp-Hl5bf-0">
          <mxGeometry x="20" y="148" width="100" height="30" as="geometry" />
        </mxCell>
        <mxCell id="8o9iVSN4vGIKwp-Hl5bf-3" value="" style="endArrow=none;html=1;rounded=0;entryX=1;entryY=0.5;entryDx=0;entryDy=0;exitX=0;exitY=0.5;exitDx=0;exitDy=0;" edge="1" parent="WIyWlLk6GJQsqaUBKTNV-1" source="8o9iVSN4vGIKwp-Hl5bf-0" target="8o9iVSN4vGIKwp-Hl5bf-0">
          <mxGeometry width="50" height="50" relative="1" as="geometry">
            <mxPoint x="80" y="682" as="sourcePoint" />
            <mxPoint x="440" y="670" as="targetPoint" />
          </mxGeometry>
        </mxCell>
        <mxCell id="8o9iVSN4vGIKwp-Hl5bf-9" value="Student" style="swimlane;whiteSpace=wrap;html=1;" vertex="1" parent="WIyWlLk6GJQsqaUBKTNV-1">
          <mxGeometry x="-30" y="1630" width="220" height="300" as="geometry" />
        </mxCell>
        <mxCell id="8o9iVSN4vGIKwp-Hl5bf-10" value="-name: String;" style="text;html=1;align=center;verticalAlign=middle;resizable=0;points=[];autosize=1;strokeColor=none;fillColor=none;" vertex="1" parent="8o9iVSN4vGIKwp-Hl5bf-9">
          <mxGeometry x="10" y="28" width="100" height="30" as="geometry" />
        </mxCell>
        <mxCell id="8o9iVSN4vGIKwp-Hl5bf-11" value="-surname: String;" style="text;html=1;align=center;verticalAlign=middle;resizable=0;points=[];autosize=1;strokeColor=none;fillColor=none;" vertex="1" parent="8o9iVSN4vGIKwp-Hl5bf-9">
          <mxGeometry y="48" width="120" height="30" as="geometry" />
        </mxCell>
        <mxCell id="8o9iVSN4vGIKwp-Hl5bf-12" value="-books: List&amp;lt;Book&amp;gt;;" style="text;html=1;align=center;verticalAlign=middle;resizable=0;points=[];autosize=1;strokeColor=none;fillColor=none;" vertex="1" parent="8o9iVSN4vGIKwp-Hl5bf-9">
          <mxGeometry y="68" width="130" height="30" as="geometry" />
        </mxCell>
        <mxCell id="8o9iVSN4vGIKwp-Hl5bf-15" value="+getName(): String;" style="text;html=1;align=center;verticalAlign=middle;resizable=0;points=[];autosize=1;strokeColor=none;fillColor=none;" vertex="1" parent="8o9iVSN4vGIKwp-Hl5bf-9">
          <mxGeometry y="110" width="130" height="30" as="geometry" />
        </mxCell>
        <mxCell id="8o9iVSN4vGIKwp-Hl5bf-16" value="+setName(): void;" style="text;html=1;align=center;verticalAlign=middle;resizable=0;points=[];autosize=1;strokeColor=none;fillColor=none;" vertex="1" parent="8o9iVSN4vGIKwp-Hl5bf-9">
          <mxGeometry x="10" y="138" width="120" height="30" as="geometry" />
        </mxCell>
        <mxCell id="8o9iVSN4vGIKwp-Hl5bf-17" value="+getSurname(): void;" style="text;html=1;align=center;verticalAlign=middle;resizable=0;points=[];autosize=1;strokeColor=none;fillColor=none;" vertex="1" parent="8o9iVSN4vGIKwp-Hl5bf-9">
          <mxGeometry y="158" width="140" height="30" as="geometry" />
        </mxCell>
        <mxCell id="8o9iVSN4vGIKwp-Hl5bf-20" value="+setSurname(): void;" style="text;html=1;align=center;verticalAlign=middle;resizable=0;points=[];autosize=1;strokeColor=none;fillColor=none;" vertex="1" parent="8o9iVSN4vGIKwp-Hl5bf-9">
          <mxGeometry y="180" width="140" height="30" as="geometry" />
        </mxCell>
        <mxCell id="8o9iVSN4vGIKwp-Hl5bf-21" value="+getBooks(): List&amp;lt;String&amp;gt;;" style="text;html=1;align=center;verticalAlign=middle;resizable=0;points=[];autosize=1;strokeColor=none;fillColor=none;" vertex="1" parent="8o9iVSN4vGIKwp-Hl5bf-9">
          <mxGeometry y="198" width="160" height="30" as="geometry" />
        </mxCell>
        <mxCell id="8o9iVSN4vGIKwp-Hl5bf-22" value="+addBook(): void;" style="text;html=1;align=center;verticalAlign=middle;resizable=0;points=[];autosize=1;strokeColor=none;fillColor=none;" vertex="1" parent="8o9iVSN4vGIKwp-Hl5bf-9">
          <mxGeometry y="220" width="120" height="30" as="geometry" />
        </mxCell>
        <mxCell id="8o9iVSN4vGIKwp-Hl5bf-23" value="+toString(): String;" style="text;html=1;align=center;verticalAlign=middle;resizable=0;points=[];autosize=1;strokeColor=none;fillColor=none;" vertex="1" parent="8o9iVSN4vGIKwp-Hl5bf-9">
          <mxGeometry x="5" y="248" width="120" height="30" as="geometry" />
        </mxCell>
        <mxCell id="8o9iVSN4vGIKwp-Hl5bf-24" value="StudentFactory" style="swimlane;whiteSpace=wrap;html=1;" vertex="1" parent="WIyWlLk6GJQsqaUBKTNV-1">
          <mxGeometry x="660" y="1850" width="200" height="170" as="geometry" />
        </mxCell>
        <mxCell id="8o9iVSN4vGIKwp-Hl5bf-25" value="-names: List&amp;lt;String&amp;gt;;" style="text;html=1;align=center;verticalAlign=middle;resizable=0;points=[];autosize=1;strokeColor=none;fillColor=none;" vertex="1" parent="8o9iVSN4vGIKwp-Hl5bf-24">
          <mxGeometry y="30" width="140" height="30" as="geometry" />
        </mxCell>
        <mxCell id="8o9iVSN4vGIKwp-Hl5bf-26" value="-surnames: List&amp;lt;String&amp;gt;;" style="text;html=1;align=center;verticalAlign=middle;resizable=0;points=[];autosize=1;strokeColor=none;fillColor=none;" vertex="1" parent="8o9iVSN4vGIKwp-Hl5bf-24">
          <mxGeometry y="58" width="150" height="30" as="geometry" />
        </mxCell>
        <mxCell id="8o9iVSN4vGIKwp-Hl5bf-28" value="+makeStudent(): Student;" style="text;html=1;align=center;verticalAlign=middle;resizable=0;points=[];autosize=1;strokeColor=none;fillColor=none;" vertex="1" parent="8o9iVSN4vGIKwp-Hl5bf-24">
          <mxGeometry x="15" y="98" width="160" height="30" as="geometry" />
        </mxCell>
        <mxCell id="8o9iVSN4vGIKwp-Hl5bf-29" value="+makeStudents(): List&amp;lt;Student&amp;gt;;" style="text;html=1;align=center;verticalAlign=middle;resizable=0;points=[];autosize=1;strokeColor=none;fillColor=none;" vertex="1" parent="8o9iVSN4vGIKwp-Hl5bf-24">
          <mxGeometry x="-5" y="128" width="200" height="30" as="geometry" />
        </mxCell>
        <mxCell id="8o9iVSN4vGIKwp-Hl5bf-87" value="" style="endArrow=none;html=1;rounded=0;exitX=-0.007;exitY=1.1;exitDx=0;exitDy=0;exitPerimeter=0;" edge="1" parent="8o9iVSN4vGIKwp-Hl5bf-24" source="8o9iVSN4vGIKwp-Hl5bf-26">
          <mxGeometry width="50" height="50" relative="1" as="geometry">
            <mxPoint x="-180" y="100" as="sourcePoint" />
            <mxPoint x="200" y="91" as="targetPoint" />
          </mxGeometry>
        </mxCell>
        <mxCell id="8o9iVSN4vGIKwp-Hl5bf-31" value="Teacher" style="swimlane;whiteSpace=wrap;html=1;" vertex="1" parent="WIyWlLk6GJQsqaUBKTNV-1">
          <mxGeometry x="294" y="1890" width="240" height="290" as="geometry" />
        </mxCell>
        <mxCell id="8o9iVSN4vGIKwp-Hl5bf-32" value="-name: String;" style="text;html=1;align=center;verticalAlign=middle;resizable=0;points=[];autosize=1;strokeColor=none;fillColor=none;" vertex="1" parent="8o9iVSN4vGIKwp-Hl5bf-31">
          <mxGeometry y="20" width="100" height="30" as="geometry" />
        </mxCell>
        <mxCell id="8o9iVSN4vGIKwp-Hl5bf-33" value="-patronymic: String;" style="text;html=1;align=center;verticalAlign=middle;resizable=0;points=[];autosize=1;strokeColor=none;fillColor=none;" vertex="1" parent="8o9iVSN4vGIKwp-Hl5bf-31">
          <mxGeometry x="10" y="50" width="130" height="30" as="geometry" />
        </mxCell>
        <mxCell id="8o9iVSN4vGIKwp-Hl5bf-35" value="-books: List&amp;lt;Book&amp;gt;;" style="text;html=1;align=center;verticalAlign=middle;resizable=0;points=[];autosize=1;strokeColor=none;fillColor=none;" vertex="1" parent="8o9iVSN4vGIKwp-Hl5bf-31">
          <mxGeometry x="10" y="100" width="130" height="30" as="geometry" />
        </mxCell>
        <mxCell id="8o9iVSN4vGIKwp-Hl5bf-38" value="+getName(): String;" style="text;html=1;align=center;verticalAlign=middle;resizable=0;points=[];autosize=1;strokeColor=none;fillColor=none;" vertex="1" parent="8o9iVSN4vGIKwp-Hl5bf-31">
          <mxGeometry x="10" y="148" width="130" height="30" as="geometry" />
        </mxCell>
        <mxCell id="8o9iVSN4vGIKwp-Hl5bf-39" value="+setName(): void;" style="text;html=1;align=center;verticalAlign=middle;resizable=0;points=[];autosize=1;strokeColor=none;fillColor=none;" vertex="1" parent="8o9iVSN4vGIKwp-Hl5bf-31">
          <mxGeometry x="10" y="168" width="120" height="30" as="geometry" />
        </mxCell>
        <mxCell id="8o9iVSN4vGIKwp-Hl5bf-40" value="+getSurname(): String;" style="text;html=1;align=center;verticalAlign=middle;resizable=0;points=[];autosize=1;strokeColor=none;fillColor=none;" vertex="1" parent="8o9iVSN4vGIKwp-Hl5bf-31">
          <mxGeometry y="188" width="150" height="30" as="geometry" />
        </mxCell>
        <mxCell id="8o9iVSN4vGIKwp-Hl5bf-43" value="+addBook(): void;" style="text;html=1;align=center;verticalAlign=middle;resizable=0;points=[];autosize=1;strokeColor=none;fillColor=none;" vertex="1" parent="8o9iVSN4vGIKwp-Hl5bf-31">
          <mxGeometry y="248" width="120" height="30" as="geometry" />
        </mxCell>
        <mxCell id="8o9iVSN4vGIKwp-Hl5bf-34" value="-surname: String;" style="text;html=1;align=center;verticalAlign=middle;resizable=0;points=[];autosize=1;strokeColor=none;fillColor=none;" vertex="1" parent="8o9iVSN4vGIKwp-Hl5bf-31">
          <mxGeometry x="20" y="70" width="120" height="30" as="geometry" />
        </mxCell>
        <mxCell id="8o9iVSN4vGIKwp-Hl5bf-36" value="" style="endArrow=none;html=1;rounded=0;" edge="1" parent="8o9iVSN4vGIKwp-Hl5bf-31">
          <mxGeometry width="50" height="50" relative="1" as="geometry">
            <mxPoint y="130" as="sourcePoint" />
            <mxPoint x="240" y="130" as="targetPoint" />
          </mxGeometry>
        </mxCell>
        <mxCell id="8o9iVSN4vGIKwp-Hl5bf-37" value="+toString(): String;" style="text;html=1;align=center;verticalAlign=middle;resizable=0;points=[];autosize=1;strokeColor=none;fillColor=none;" vertex="1" parent="8o9iVSN4vGIKwp-Hl5bf-31">
          <mxGeometry x="20" y="130" width="120" height="30" as="geometry" />
        </mxCell>
        <mxCell id="8o9iVSN4vGIKwp-Hl5bf-42" value="+getBooks(): List&amp;lt;Book&amp;gt;;" style="text;html=1;align=center;verticalAlign=middle;resizable=0;points=[];autosize=1;strokeColor=none;fillColor=none;" vertex="1" parent="8o9iVSN4vGIKwp-Hl5bf-31">
          <mxGeometry x="10" y="230" width="160" height="30" as="geometry" />
        </mxCell>
        <mxCell id="8o9iVSN4vGIKwp-Hl5bf-41" value="+setSurname(): void;" style="text;html=1;align=center;verticalAlign=middle;resizable=0;points=[];autosize=1;strokeColor=none;fillColor=none;" vertex="1" parent="8o9iVSN4vGIKwp-Hl5bf-31">
          <mxGeometry x="20" y="210" width="140" height="30" as="geometry" />
        </mxCell>
        <mxCell id="8o9iVSN4vGIKwp-Hl5bf-44" value="TeacherFactory" style="swimlane;whiteSpace=wrap;html=1;" vertex="1" parent="WIyWlLk6GJQsqaUBKTNV-1">
          <mxGeometry x="750" y="1208" width="200" height="200" as="geometry" />
        </mxCell>
        <mxCell id="8o9iVSN4vGIKwp-Hl5bf-46" value="-surnames: List&amp;lt;String&amp;gt;;" style="text;html=1;align=center;verticalAlign=middle;resizable=0;points=[];autosize=1;strokeColor=none;fillColor=none;" vertex="1" parent="8o9iVSN4vGIKwp-Hl5bf-44">
          <mxGeometry x="5" y="55" width="150" height="30" as="geometry" />
        </mxCell>
        <mxCell id="8o9iVSN4vGIKwp-Hl5bf-47" value="-patronymic: List&amp;lt;String&amp;gt;;" style="text;html=1;align=center;verticalAlign=middle;resizable=0;points=[];autosize=1;strokeColor=none;fillColor=none;" vertex="1" parent="8o9iVSN4vGIKwp-Hl5bf-44">
          <mxGeometry x="5" y="85" width="160" height="30" as="geometry" />
        </mxCell>
        <mxCell id="8o9iVSN4vGIKwp-Hl5bf-49" value="+makeTeachers(): List&amp;lt;Teacher&amp;gt;;" style="text;html=1;align=center;verticalAlign=middle;resizable=0;points=[];autosize=1;strokeColor=none;fillColor=none;" vertex="1" parent="8o9iVSN4vGIKwp-Hl5bf-44">
          <mxGeometry y="115" width="200" height="30" as="geometry" />
        </mxCell>
        <mxCell id="8o9iVSN4vGIKwp-Hl5bf-48" value="" style="endArrow=none;html=1;rounded=0;" edge="1" parent="8o9iVSN4vGIKwp-Hl5bf-44">
          <mxGeometry width="50" height="50" relative="1" as="geometry">
            <mxPoint y="114" as="sourcePoint" />
            <mxPoint x="200" y="114" as="targetPoint" />
          </mxGeometry>
        </mxCell>
        <mxCell id="8o9iVSN4vGIKwp-Hl5bf-50" value="+makeTeacher(): Teacher;" style="text;html=1;align=center;verticalAlign=middle;resizable=0;points=[];autosize=1;strokeColor=none;fillColor=none;" vertex="1" parent="8o9iVSN4vGIKwp-Hl5bf-44">
          <mxGeometry y="145" width="160" height="30" as="geometry" />
        </mxCell>
        <mxCell id="8o9iVSN4vGIKwp-Hl5bf-45" value="-names: List&amp;lt;String&amp;gt;;&lt;div&gt;&lt;br&gt;&lt;/div&gt;" style="text;html=1;align=center;verticalAlign=middle;resizable=0;points=[];autosize=1;strokeColor=none;fillColor=none;" vertex="1" parent="8o9iVSN4vGIKwp-Hl5bf-44">
          <mxGeometry x="5" y="32" width="140" height="40" as="geometry" />
        </mxCell>
        <mxCell id="8o9iVSN4vGIKwp-Hl5bf-51" value="&amp;lt;Abstract&amp;gt; Person" style="swimlane;whiteSpace=wrap;html=1;" vertex="1" parent="WIyWlLk6GJQsqaUBKTNV-1">
          <mxGeometry x="430" y="1260" width="220" height="240" as="geometry" />
        </mxCell>
        <mxCell id="8o9iVSN4vGIKwp-Hl5bf-64" value="+getBooks(): List&amp;lt;Book&amp;gt;;" style="text;html=1;align=center;verticalAlign=middle;resizable=0;points=[];autosize=1;strokeColor=none;fillColor=none;" vertex="1" parent="8o9iVSN4vGIKwp-Hl5bf-51">
          <mxGeometry y="178" width="160" height="30" as="geometry" />
        </mxCell>
        <mxCell id="8o9iVSN4vGIKwp-Hl5bf-52" value="-name: String;" style="text;html=1;align=center;verticalAlign=middle;resizable=0;points=[];autosize=1;strokeColor=none;fillColor=none;" vertex="1" parent="WIyWlLk6GJQsqaUBKTNV-1">
          <mxGeometry x="450" y="1278" width="100" height="30" as="geometry" />
        </mxCell>
        <mxCell id="8o9iVSN4vGIKwp-Hl5bf-54" value="-surname: String;" style="text;html=1;align=center;verticalAlign=middle;resizable=0;points=[];autosize=1;strokeColor=none;fillColor=none;" vertex="1" parent="WIyWlLk6GJQsqaUBKTNV-1">
          <mxGeometry x="450" y="1308" width="120" height="30" as="geometry" />
        </mxCell>
        <mxCell id="8o9iVSN4vGIKwp-Hl5bf-55" value="-books: String;" style="text;html=1;align=center;verticalAlign=middle;resizable=0;points=[];autosize=1;strokeColor=none;fillColor=none;" vertex="1" parent="WIyWlLk6GJQsqaUBKTNV-1">
          <mxGeometry x="450" y="1328" width="100" height="30" as="geometry" />
        </mxCell>
        <mxCell id="8o9iVSN4vGIKwp-Hl5bf-57" value="+getName(): String;" style="text;html=1;align=center;verticalAlign=middle;resizable=0;points=[];autosize=1;strokeColor=none;fillColor=none;" vertex="1" parent="WIyWlLk6GJQsqaUBKTNV-1">
          <mxGeometry x="445" y="1358" width="130" height="30" as="geometry" />
        </mxCell>
        <mxCell id="8o9iVSN4vGIKwp-Hl5bf-58" value="+getSurname(): String;" style="text;html=1;align=center;verticalAlign=middle;resizable=0;points=[];autosize=1;strokeColor=none;fillColor=none;" vertex="1" parent="WIyWlLk6GJQsqaUBKTNV-1">
          <mxGeometry x="425" y="1378" width="150" height="30" as="geometry" />
        </mxCell>
        <mxCell id="8o9iVSN4vGIKwp-Hl5bf-59" value="+setName(): void;" style="text;html=1;align=center;verticalAlign=middle;resizable=0;points=[];autosize=1;strokeColor=none;fillColor=none;" vertex="1" parent="WIyWlLk6GJQsqaUBKTNV-1">
          <mxGeometry x="440" y="1398" width="120" height="30" as="geometry" />
        </mxCell>
        <mxCell id="8o9iVSN4vGIKwp-Hl5bf-60" value="+setSurname(): void;" style="text;html=1;align=center;verticalAlign=middle;resizable=0;points=[];autosize=1;strokeColor=none;fillColor=none;" vertex="1" parent="WIyWlLk6GJQsqaUBKTNV-1">
          <mxGeometry x="430" y="1418" width="140" height="30" as="geometry" />
        </mxCell>
        <mxCell id="8o9iVSN4vGIKwp-Hl5bf-63" value="" style="endArrow=none;html=1;rounded=0;" edge="1" parent="WIyWlLk6GJQsqaUBKTNV-1">
          <mxGeometry width="50" height="50" relative="1" as="geometry">
            <mxPoint x="430" y="1360" as="sourcePoint" />
            <mxPoint x="650" y="1360" as="targetPoint" />
          </mxGeometry>
        </mxCell>
        <mxCell id="8o9iVSN4vGIKwp-Hl5bf-65" value="+addBook(): void;" style="text;html=1;align=center;verticalAlign=middle;resizable=0;points=[];autosize=1;strokeColor=none;fillColor=none;" vertex="1" parent="WIyWlLk6GJQsqaUBKTNV-1">
          <mxGeometry x="440" y="1458" width="120" height="30" as="geometry" />
        </mxCell>
        <mxCell id="8o9iVSN4vGIKwp-Hl5bf-66" value="Builder" style="swimlane;whiteSpace=wrap;html=1;" vertex="1" parent="WIyWlLk6GJQsqaUBKTNV-1">
          <mxGeometry x="100" y="1320" width="200" height="220" as="geometry" />
        </mxCell>
        <mxCell id="8o9iVSN4vGIKwp-Hl5bf-67" value="-name: String;" style="text;html=1;align=center;verticalAlign=middle;resizable=0;points=[];autosize=1;strokeColor=none;fillColor=none;" vertex="1" parent="WIyWlLk6GJQsqaUBKTNV-1">
          <mxGeometry x="120" y="1348" width="100" height="30" as="geometry" />
        </mxCell>
        <mxCell id="8o9iVSN4vGIKwp-Hl5bf-68" value="-level: String;" style="text;html=1;align=center;verticalAlign=middle;resizable=0;points=[];autosize=1;strokeColor=none;fillColor=none;" vertex="1" parent="WIyWlLk6GJQsqaUBKTNV-1">
          <mxGeometry x="105" y="1378" width="90" height="30" as="geometry" />
        </mxCell>
        <mxCell id="8o9iVSN4vGIKwp-Hl5bf-69" value="-type: String;" style="text;html=1;align=center;verticalAlign=middle;resizable=0;points=[];autosize=1;strokeColor=none;fillColor=none;" vertex="1" parent="WIyWlLk6GJQsqaUBKTNV-1">
          <mxGeometry x="115" y="1398" width="90" height="30" as="geometry" />
        </mxCell>
        <mxCell id="8o9iVSN4vGIKwp-Hl5bf-70" value="" style="endArrow=none;html=1;rounded=0;" edge="1" parent="WIyWlLk6GJQsqaUBKTNV-1">
          <mxGeometry width="50" height="50" relative="1" as="geometry">
            <mxPoint x="100" y="1440" as="sourcePoint" />
            <mxPoint x="300" y="1440" as="targetPoint" />
          </mxGeometry>
        </mxCell>
        <mxCell id="8o9iVSN4vGIKwp-Hl5bf-71" value="+name(): Builder;" style="text;html=1;align=center;verticalAlign=middle;resizable=0;points=[];autosize=1;strokeColor=none;fillColor=none;" vertex="1" parent="WIyWlLk6GJQsqaUBKTNV-1">
          <mxGeometry x="120" y="1448" width="120" height="30" as="geometry" />
        </mxCell>
        <mxCell id="8o9iVSN4vGIKwp-Hl5bf-72" value="+level(): Builder;" style="text;html=1;align=center;verticalAlign=middle;resizable=0;points=[];autosize=1;strokeColor=none;fillColor=none;" vertex="1" parent="WIyWlLk6GJQsqaUBKTNV-1">
          <mxGeometry x="115" y="1468" width="110" height="30" as="geometry" />
        </mxCell>
        <mxCell id="8o9iVSN4vGIKwp-Hl5bf-73" value="+type(): Builder;" style="text;html=1;align=center;verticalAlign=middle;resizable=0;points=[];autosize=1;strokeColor=none;fillColor=none;" vertex="1" parent="WIyWlLk6GJQsqaUBKTNV-1">
          <mxGeometry x="105" y="1488" width="110" height="30" as="geometry" />
        </mxCell>
        <mxCell id="8o9iVSN4vGIKwp-Hl5bf-74" value="+build(): Book" style="text;html=1;align=center;verticalAlign=middle;resizable=0;points=[];autosize=1;strokeColor=none;fillColor=none;" vertex="1" parent="WIyWlLk6GJQsqaUBKTNV-1">
          <mxGeometry x="110" y="1508" width="100" height="30" as="geometry" />
        </mxCell>
        <mxCell id="8o9iVSN4vGIKwp-Hl5bf-75" value="" style="endArrow=none;html=1;rounded=0;exitX=0.463;exitY=-0.01;exitDx=0;exitDy=0;exitPerimeter=0;" edge="1" parent="WIyWlLk6GJQsqaUBKTNV-1" source="zkfFHV4jXpPFQw0GAbJ--0">
          <mxGeometry width="50" height="50" relative="1" as="geometry">
            <mxPoint x="380" y="1520" as="sourcePoint" />
            <mxPoint x="360" y="1430" as="targetPoint" />
          </mxGeometry>
        </mxCell>
        <mxCell id="zkfFHV4jXpPFQw0GAbJ--0" value="Book" style="swimlane;fontStyle=2;align=center;verticalAlign=top;childLayout=stackLayout;horizontal=1;startSize=26;horizontalStack=0;resizeParent=1;resizeLast=0;collapsible=1;marginBottom=0;rounded=0;shadow=0;strokeWidth=1;" parent="WIyWlLk6GJQsqaUBKTNV-1" vertex="1">
          <mxGeometry x="285" y="1630" width="160" height="200" as="geometry">
            <mxRectangle x="230" y="140" width="160" height="26" as="alternateBounds" />
          </mxGeometry>
        </mxCell>
        <mxCell id="zkfFHV4jXpPFQw0GAbJ--1" value="-Name: String;" style="text;align=left;verticalAlign=top;spacingLeft=4;spacingRight=4;overflow=hidden;rotatable=0;points=[[0,0.5],[1,0.5]];portConstraint=eastwest;" parent="zkfFHV4jXpPFQw0GAbJ--0" vertex="1">
          <mxGeometry y="26" width="160" height="26" as="geometry" />
        </mxCell>
        <mxCell id="zkfFHV4jXpPFQw0GAbJ--2" value="-level: String;" style="text;align=left;verticalAlign=top;spacingLeft=4;spacingRight=4;overflow=hidden;rotatable=0;points=[[0,0.5],[1,0.5]];portConstraint=eastwest;rounded=0;shadow=0;html=0;" parent="zkfFHV4jXpPFQw0GAbJ--0" vertex="1">
          <mxGeometry y="52" width="160" height="26" as="geometry" />
        </mxCell>
        <mxCell id="zkfFHV4jXpPFQw0GAbJ--3" value="-type: String;" style="text;align=left;verticalAlign=top;spacingLeft=4;spacingRight=4;overflow=hidden;rotatable=0;points=[[0,0.5],[1,0.5]];portConstraint=eastwest;rounded=0;shadow=0;html=0;" parent="zkfFHV4jXpPFQw0GAbJ--0" vertex="1">
          <mxGeometry y="78" width="160" height="26" as="geometry" />
        </mxCell>
        <mxCell id="zkfFHV4jXpPFQw0GAbJ--4" value="" style="line;html=1;strokeWidth=1;align=left;verticalAlign=middle;spacingTop=-1;spacingLeft=3;spacingRight=3;rotatable=0;labelPosition=right;points=[];portConstraint=eastwest;" parent="zkfFHV4jXpPFQw0GAbJ--0" vertex="1">
          <mxGeometry y="104" width="160" height="8" as="geometry" />
        </mxCell>
        <mxCell id="zkfFHV4jXpPFQw0GAbJ--5" value="+toString(): String;&#xa;+getName(): String;&#xa;+getLevel(): String;&#xa;+getType(): String;&#xa;" style="text;align=left;verticalAlign=top;spacingLeft=4;spacingRight=4;overflow=hidden;rotatable=0;points=[[0,0.5],[1,0.5]];portConstraint=eastwest;" parent="zkfFHV4jXpPFQw0GAbJ--0" vertex="1">
          <mxGeometry y="112" width="160" height="88" as="geometry" />
        </mxCell>
        <mxCell id="8o9iVSN4vGIKwp-Hl5bf-76" value="" style="endArrow=none;html=1;rounded=0;" edge="1" parent="WIyWlLk6GJQsqaUBKTNV-1">
          <mxGeometry width="50" height="50" relative="1" as="geometry">
            <mxPoint x="320" y="1430" as="sourcePoint" />
            <mxPoint x="360" y="1430" as="targetPoint" />
          </mxGeometry>
        </mxCell>
        <mxCell id="8o9iVSN4vGIKwp-Hl5bf-77" value="" style="triangle;whiteSpace=wrap;html=1;direction=west;" vertex="1" parent="WIyWlLk6GJQsqaUBKTNV-1">
          <mxGeometry x="300" y="1408" width="20" height="40" as="geometry" />
        </mxCell>
        <mxCell id="8o9iVSN4vGIKwp-Hl5bf-78" value="" style="endArrow=none;html=1;rounded=0;entryX=-0.003;entryY=0.893;entryDx=0;entryDy=0;entryPerimeter=0;exitX=1;exitY=0.5;exitDx=0;exitDy=0;" edge="1" parent="WIyWlLk6GJQsqaUBKTNV-1" source="zkfFHV4jXpPFQw0GAbJ--1" target="zkfFHV4jXpPFQw0GAbJ--8">
          <mxGeometry width="50" height="50" relative="1" as="geometry">
            <mxPoint x="380" y="1700" as="sourcePoint" />
            <mxPoint x="430" y="1650" as="targetPoint" />
          </mxGeometry>
        </mxCell>
        <mxCell id="8o9iVSN4vGIKwp-Hl5bf-79" value="" style="endArrow=none;html=1;rounded=0;exitX=0.963;exitY=-0.015;exitDx=0;exitDy=0;exitPerimeter=0;" edge="1" parent="WIyWlLk6GJQsqaUBKTNV-1" source="zkfFHV4jXpPFQw0GAbJ--0">
          <mxGeometry width="50" height="50" relative="1" as="geometry">
            <mxPoint x="380" y="1570" as="sourcePoint" />
            <mxPoint x="440" y="1500" as="targetPoint" />
          </mxGeometry>
        </mxCell>
        <mxCell id="8o9iVSN4vGIKwp-Hl5bf-80" value="" style="endArrow=none;html=1;rounded=0;entryX=0;entryY=0.5;entryDx=0;entryDy=0;" edge="1" parent="WIyWlLk6GJQsqaUBKTNV-1" target="zkfFHV4jXpPFQw0GAbJ--3">
          <mxGeometry width="50" height="50" relative="1" as="geometry">
            <mxPoint x="190" y="1720" as="sourcePoint" />
            <mxPoint x="430" y="1590" as="targetPoint" />
          </mxGeometry>
        </mxCell>
        <mxCell id="8o9iVSN4vGIKwp-Hl5bf-81" value="" style="endArrow=none;html=1;rounded=0;entryX=0.475;entryY=0.989;entryDx=0;entryDy=0;entryPerimeter=0;exitX=0.292;exitY=0.007;exitDx=0;exitDy=0;exitPerimeter=0;" edge="1" parent="WIyWlLk6GJQsqaUBKTNV-1" source="8o9iVSN4vGIKwp-Hl5bf-31" target="zkfFHV4jXpPFQw0GAbJ--5">
          <mxGeometry width="50" height="50" relative="1" as="geometry">
            <mxPoint x="380" y="2000" as="sourcePoint" />
            <mxPoint x="430" y="1950" as="targetPoint" />
          </mxGeometry>
        </mxCell>
        <mxCell id="8o9iVSN4vGIKwp-Hl5bf-82" value="" style="endArrow=none;html=1;rounded=0;exitX=0.455;exitY=-0.008;exitDx=0;exitDy=0;exitPerimeter=0;" edge="1" parent="WIyWlLk6GJQsqaUBKTNV-1" source="zkfFHV4jXpPFQw0GAbJ--6">
          <mxGeometry width="50" height="50" relative="1" as="geometry">
            <mxPoint x="380" y="1540" as="sourcePoint" />
            <mxPoint x="680" y="1400" as="targetPoint" />
          </mxGeometry>
        </mxCell>
        <mxCell id="8o9iVSN4vGIKwp-Hl5bf-83" value="" style="endArrow=none;html=1;rounded=0;" edge="1" parent="WIyWlLk6GJQsqaUBKTNV-1">
          <mxGeometry width="50" height="50" relative="1" as="geometry">
            <mxPoint x="650" y="1400" as="sourcePoint" />
            <mxPoint x="680" y="1400" as="targetPoint" />
          </mxGeometry>
        </mxCell>
        <mxCell id="8o9iVSN4vGIKwp-Hl5bf-84" value="" style="endArrow=none;html=1;rounded=0;" edge="1" parent="WIyWlLk6GJQsqaUBKTNV-1">
          <mxGeometry width="50" height="50" relative="1" as="geometry">
            <mxPoint x="820" y="1510" as="sourcePoint" />
            <mxPoint x="820" y="1410" as="targetPoint" />
          </mxGeometry>
        </mxCell>
        <mxCell id="8o9iVSN4vGIKwp-Hl5bf-85" value="" style="rhombus;whiteSpace=wrap;html=1;" vertex="1" parent="WIyWlLk6GJQsqaUBKTNV-1">
          <mxGeometry x="800" y="1506.5" width="40" height="33.5" as="geometry" />
        </mxCell>
        <mxCell id="8o9iVSN4vGIKwp-Hl5bf-89" value="" style="endArrow=none;html=1;rounded=0;exitX=0.305;exitY=0;exitDx=0;exitDy=0;exitPerimeter=0;" edge="1" parent="WIyWlLk6GJQsqaUBKTNV-1" source="8o9iVSN4vGIKwp-Hl5bf-24">
          <mxGeometry width="50" height="50" relative="1" as="geometry">
            <mxPoint x="480" y="1950" as="sourcePoint" />
            <mxPoint x="720" y="1810" as="targetPoint" />
          </mxGeometry>
        </mxCell>
        <mxCell id="8o9iVSN4vGIKwp-Hl5bf-90" value="" style="rhombus;whiteSpace=wrap;html=1;" vertex="1" parent="WIyWlLk6GJQsqaUBKTNV-1">
          <mxGeometry x="700" y="1778" width="40" height="30" as="geometry" />
        </mxCell>
        <mxCell id="8o9iVSN4vGIKwp-Hl5bf-91" value="" style="endArrow=none;html=1;rounded=0;entryX=0.25;entryY=1;entryDx=0;entryDy=0;exitX=0;exitY=0.5;exitDx=0;exitDy=0;" edge="1" parent="WIyWlLk6GJQsqaUBKTNV-1" source="8o9iVSN4vGIKwp-Hl5bf-92" target="8o9iVSN4vGIKwp-Hl5bf-51">
          <mxGeometry width="50" height="50" relative="1" as="geometry">
            <mxPoint x="480" y="1860" as="sourcePoint" />
            <mxPoint x="450" y="1650" as="targetPoint" />
          </mxGeometry>
        </mxCell>
        <mxCell id="8o9iVSN4vGIKwp-Hl5bf-92" value="" style="triangle;whiteSpace=wrap;html=1;direction=south;" vertex="1" parent="WIyWlLk6GJQsqaUBKTNV-1">
          <mxGeometry x="460" y="1870" width="42" height="20" as="geometry" />
        </mxCell>
        <mxCell id="8o9iVSN4vGIKwp-Hl5bf-93" value="" style="endArrow=none;html=1;rounded=0;exitX=0;exitY=0.75;exitDx=0;exitDy=0;" edge="1" parent="WIyWlLk6GJQsqaUBKTNV-1" source="8o9iVSN4vGIKwp-Hl5bf-95">
          <mxGeometry width="50" height="50" relative="1" as="geometry">
            <mxPoint y="1600" as="sourcePoint" />
            <mxPoint y="1280" as="targetPoint" />
          </mxGeometry>
        </mxCell>
        <mxCell id="8o9iVSN4vGIKwp-Hl5bf-94" value="" style="endArrow=none;html=1;rounded=0;entryX=0.005;entryY=0.092;entryDx=0;entryDy=0;entryPerimeter=0;" edge="1" parent="WIyWlLk6GJQsqaUBKTNV-1" target="8o9iVSN4vGIKwp-Hl5bf-51">
          <mxGeometry width="50" height="50" relative="1" as="geometry">
            <mxPoint y="1282" as="sourcePoint" />
            <mxPoint x="320" y="1420" as="targetPoint" />
          </mxGeometry>
        </mxCell>
        <mxCell id="8o9iVSN4vGIKwp-Hl5bf-95" value="" style="triangle;whiteSpace=wrap;html=1;direction=south;" vertex="1" parent="WIyWlLk6GJQsqaUBKTNV-1">
          <mxGeometry x="-10" y="1607" width="30" height="23" as="geometry" />
        </mxCell>
        <mxCell id="8o9iVSN4vGIKwp-Hl5bf-96" value="" style="endArrow=none;html=1;rounded=0;" edge="1" parent="WIyWlLk6GJQsqaUBKTNV-1">
          <mxGeometry width="50" height="50" relative="1" as="geometry">
            <mxPoint x="720" y="2240" as="sourcePoint" />
            <mxPoint x="720" y="2020" as="targetPoint" />
          </mxGeometry>
        </mxCell>
        <mxCell id="8o9iVSN4vGIKwp-Hl5bf-97" value="" style="endArrow=none;html=1;rounded=0;" edge="1" parent="WIyWlLk6GJQsqaUBKTNV-1">
          <mxGeometry width="50" height="50" relative="1" as="geometry">
            <mxPoint x="120" y="2240" as="sourcePoint" />
            <mxPoint x="720" y="2240" as="targetPoint" />
          </mxGeometry>
        </mxCell>
        <mxCell id="8o9iVSN4vGIKwp-Hl5bf-98" value="" style="endArrow=none;html=1;rounded=0;" edge="1" parent="WIyWlLk6GJQsqaUBKTNV-1">
          <mxGeometry width="50" height="50" relative="1" as="geometry">
            <mxPoint x="120" y="2240" as="sourcePoint" />
            <mxPoint x="120" y="1930" as="targetPoint" />
          </mxGeometry>
        </mxCell>
        <mxCell id="8o9iVSN4vGIKwp-Hl5bf-99" value="" style="endArrow=none;html=1;rounded=0;" edge="1" parent="WIyWlLk6GJQsqaUBKTNV-1">
          <mxGeometry width="50" height="50" relative="1" as="geometry">
            <mxPoint x="530" y="2080" as="sourcePoint" />
            <mxPoint x="920" y="2080" as="targetPoint" />
          </mxGeometry>
        </mxCell>
        <mxCell id="8o9iVSN4vGIKwp-Hl5bf-100" value="" style="endArrow=none;html=1;rounded=0;" edge="1" parent="WIyWlLk6GJQsqaUBKTNV-1">
          <mxGeometry width="50" height="50" relative="1" as="geometry">
            <mxPoint x="920" y="2082.222222222222" as="sourcePoint" />
            <mxPoint x="920" y="1410" as="targetPoint" />
          </mxGeometry>
        </mxCell>
      </root>
    </mxGraphModel>
  </diagram>
</mxfile>
